<svg  viewBox="0 0 16 16" fill="none" xmlns="http://www.w3.org/2000/svg">
<path fill-rule="evenodd" clip-rule="evenodd" d="M4.47144 3.52876C4.21109 3.26841 3.78898 3.26841 3.52864 3.52876C3.26829 3.7891 3.26829 4.21121 3.52864 4.47156L7.05723 8.00016L3.52864 11.5288C3.26829 11.7891 3.26829 12.2112 3.52864 12.4716C3.78898 12.7319 4.21109 12.7319 4.47144 12.4716L8.00004 8.94297L11.5287 12.4716C11.789 12.7319 12.2111 12.7319 12.4715 12.4716C12.7318 12.2112 12.7318 11.7891 12.4715 11.5288L8.94285 8.00016L12.4715 4.47156C12.7318 4.21121 12.7318 3.7891 12.4715 3.52876C12.2111 3.26841 11.789 3.26841 11.5287 3.52876L8.00004 7.05735L4.47144 3.52876Z" fill="#EF773B"/>
</svg>
