<svg width="11" height="12" viewBox="0 0 11 12" fill="none" xmlns="http://www.w3.org/2000/svg">
<path d="M3.33997 0.719971C1.61977 0.719971 0.219971 2.11977 0.219971 3.83997V8.15997C0.219971 9.88018 1.61977 11.28 3.33997 11.28H7.65997C9.38018 11.28 10.78 9.88018 10.78 8.15997V3.83997C10.78 2.11977 9.38018 0.719971 7.65997 0.719971H3.33997ZM3.33997 1.19997H7.65997C9.12073 1.19997 10.3 2.37922 10.3 3.83997V8.15997C10.3 9.62073 9.12073 10.8 7.65997 10.8H3.33997C1.87922 10.8 0.699971 9.62073 0.699971 8.15997V3.83997C0.699971 2.37922 1.87922 1.19997 3.33997 1.19997ZM8.37997 2.63997C8.11487 2.63997 7.89997 2.85487 7.89997 3.11997C7.89997 3.38507 8.11487 3.59997 8.37997 3.59997C8.64507 3.59997 8.85997 3.38507 8.85997 3.11997C8.85997 2.85487 8.64507 2.63997 8.37997 2.63997ZM5.49997 3.35997C4.04478 3.35997 2.85997 4.54478 2.85997 5.99997C2.85997 7.45516 4.04478 8.63997 5.49997 8.63997C6.95516 8.63997 8.13997 7.45516 8.13997 5.99997C8.13997 4.54478 6.95516 3.35997 5.49997 3.35997ZM5.49997 3.83997C6.69575 3.83997 7.65997 4.80419 7.65997 5.99997C7.65997 7.19575 6.69575 8.15997 5.49997 8.15997C4.30419 8.15997 3.33997 7.19575 3.33997 5.99997C3.33997 4.80419 4.30419 3.83997 5.49997 3.83997Z" fill="#C74E08"/>
</svg>
