<svg width="10" height="10" fill="none" xmlns="http://www.w3.org/2000/svg"><g clip-path="url(#prefix__clip0_619_1744)"><path fill-rule="evenodd" clip-rule="evenodd" d="M8.5 1.498a2.264 2.264 0 00-3.205 0l-1.309 1.31a.417.417 0 11-.589-.59L4.705.91a3.097 3.097 0 014.386 0 3.098 3.098 0 010 4.385L7.781 6.603a.417.417 0 11-.59-.59l1.31-1.308a2.264 2.264 0 000-3.206H8.5zM2.808 3.397a.417.417 0 010 .59L1.498 5.294a2.264 2.264 0 000 3.206H1.5a2.264 2.264 0 003.206 0l1.309-1.308a.417.417 0 11.589.59L5.295 9.09a3.098 3.098 0 01-4.386 0 3.097 3.097 0 010-4.385l1.309-1.308a.417.417 0 01.59 0zm4.154.231a.417.417 0 00-.589-.59L3.04 6.373a.417.417 0 10.589.59l3.333-3.334z" fill="#2E2A30"/></g><defs><clipPath id="prefix__clip0_619_1744"><path fill="#fff" d="M0 0h10v10H0z"/></clipPath></defs></svg>