<svg  viewBox="0 0 53 48"xmlns="http://www.w3.org/2000/svg"><path fill-rule="evenodd" d="M2.304 0h48.392A2.304 2.304 0 0153 2.304V4.61a2.304 2.304 0 01-2.304 2.304H2.304A2.304 2.304 0 010 4.609V2.304A2.304 2.304 0 012.304 0zm0 18.435h48.392A2.304 2.304 0 0153 20.739v2.304a2.304 2.304 0 01-2.304 2.305H2.304A2.304 2.304 0 010 23.043V20.74a2.304 2.304 0 012.304-2.304zm0 18.435h48.392A2.304 2.304 0 0153 39.174v2.304a2.304 2.304 0 01-2.304 2.305H2.304A2.304 2.304 0 010 41.478v-2.304a2.304 2.304 0 012.304-2.304z"/></svg>