<svg viewBox="0 0 32 32" fill="none" xmlns="http://www.w3.org/2000/svg">
<path fill-rule="evenodd" clip-rule="evenodd" d="M3.99984 5.33337C3.26346 5.33337 2.6665 5.93031 2.6665 6.66669C2.6665 7.40307 3.26346 8.00003 3.99984 8.00003H27.9998C28.7362 8.00003 29.3332 7.40307 29.3332 6.66669C29.3332 5.93031 28.7362 5.33337 27.9998 5.33337H3.99984ZM3.99984 14.6667C3.26346 14.6667 2.6665 15.2637 2.6665 16C2.6665 16.7364 3.26346 17.3334 3.99984 17.3334H27.9998C28.7362 17.3334 29.3332 16.7364 29.3332 16C29.3332 15.2637 28.7362 14.6667 27.9998 14.6667H3.99984ZM2.6665 25.3334C2.6665 24.597 3.26346 24 3.99984 24H27.9998C28.7362 24 29.3332 24.597 29.3332 25.3334C29.3332 26.0698 28.7362 26.6668 27.9998 26.6668H3.99984C3.26346 26.6668 2.6665 26.0698 2.6665 25.3334Z" fill="#EF773B"/>
</svg>
