<svg width="13" height="7" viewBox="0 0 13 7" fill="none" xmlns="http://www.w3.org/2000/svg">
<path d="M7.7 0.640015C6.83563 0.640015 6.02 1.06939 5.54 1.76501V2.60501L5.615 2.65751L5.705 2.41751C6.04063 1.62533 6.8375 1.12001 7.6775 1.12001C8.8775 1.12001 9.8375 2.08001 9.8375 3.28001V3.76001L10.1975 3.61751C10.3653 3.54533 10.5322 3.52001 10.7 3.52001C11.42 3.52001 12.02 4.12001 12.02 4.84001C12.02 5.56001 11.42 6.16001 10.7 6.16001H5.54V6.64001H10.7C11.6844 6.64001 12.5 5.82439 12.5 4.84001C12.5 3.85564 11.6844 3.04001 10.7 3.04001C10.58 3.04001 10.46 3.06064 10.34 3.08501C10.22 1.7172 9.09219 0.640015 7.7 0.640015ZM4.58 1.84001C4.41219 1.84001 4.24437 1.86064 4.1 1.88501V6.64001H4.58V1.84001ZM4.82 1.84001V6.64001H5.3V1.96001C5.15563 1.9122 4.98781 1.86439 4.82 1.84001ZM3.86 1.96001C3.69219 2.0322 3.52437 2.10439 3.38 2.20001V6.64001H3.86V1.96001ZM3.14 2.39501C2.94781 2.56283 2.78 2.77751 2.66 3.01751V6.64001H3.14V2.39501ZM2.06 3.28001C2.01781 3.28283 1.97563 3.29033 1.94 3.30251V6.61751C2.01219 6.64189 2.10781 6.64001 2.18 6.64001H2.42V3.30251C2.34781 3.27814 2.25219 3.28001 2.18 3.28001C2.14437 3.28001 2.10219 3.2772 2.06 3.28001ZM1.7 3.35501C1.53219 3.40283 1.36437 3.47501 1.22 3.59501V6.32501C1.36437 6.42064 1.53219 6.5172 1.7 6.56501V3.35501ZM0.98 3.78251C0.692187 4.0947 0.5 4.50439 0.5 4.96001C0.5 5.41564 0.692187 5.82533 0.98 6.13751V3.78251Z" fill="#C74E08"/>
</svg>
